<svg xmlns="http://www.w3.org/2000/svg" version="1.1" xmlns:xlink="http://www.w3.org/1999/xlink" xmlns:svgjs="http://svgjs.dev/svgjs" width="1440" height="560" preserveAspectRatio="none" viewBox="0 0 1440 560"><g mask="url(&quot;#SvgjsMask5176&quot;)" fill="none"><rect width="1440" height="560" x="0" y="0" fill="url(&quot;#SvgjsLinearGradient5177&quot;)"></rect><path d="M1512 560L0 560 L0 456.71Q71.41 408.12, 120 479.53Q150.28 437.81, 192 468.09Q218.02 422.11, 264 448.12Q342.4 406.52, 384 484.93Q436.19 417.12, 504 469.31Q556.36 401.67, 624 454.03Q674.17 432.2, 696 482.37Q726.59 440.96, 768 471.55Q816.68 400.23, 888 448.91Q953.57 394.48, 1008 460.04Q1055.85 435.89, 1080 483.74Q1110.05 441.79, 1152 471.84Q1203.93 403.77, 1272 455.71Q1345.11 408.82, 1392 481.93Q1444.83 414.75, 1512 467.58z" fill="#182f5d"></path><path d="M1512 560L0 560 L0 492.69Q62 434.69, 120 496.7Q186.39 443.09, 240 509.48Q263.08 460.56, 312 483.65Q355.44 455.08, 384 498.52Q427.24 469.75, 456 512.99Q476.13 461.13, 528 481.26Q595.6 428.86, 648 496.46Q715.64 444.11, 768 511.75Q812.87 436.62, 888 481.48Q954.44 427.92, 1008 494.36Q1076.22 442.59, 1128 510.81Q1150.01 460.82, 1200 482.83Q1266.97 429.8, 1320 496.77Q1364.09 468.86, 1392 512.94Q1435.52 436.47, 1512 479.99z" fill="#25467d"></path><path d="M1464 560L0 560 L0 517.42Q38.14 483.56, 72 521.69Q138.3 468, 192 534.3Q240.44 462.74, 312 511.17Q353.77 480.94, 384 522.71Q449.19 467.9, 504 533.09Q552.85 461.94, 624 510.79Q689.68 456.48, 744 522.16Q813.33 471.49, 864 540.82Q906.71 463.53, 984 506.24Q1031.79 482.03, 1056 529.82Q1086.83 488.65, 1128 519.48Q1182.84 454.32, 1248 509.16Q1300.25 489.41, 1320 541.66Q1348.5 498.16, 1392 526.66Q1422.75 485.4, 1464 516.15z" fill="#356cb1"></path><path d="M1512 560L0 560 L0 550.59Q36.33 514.92, 72 551.26Q99.16 506.42, 144 533.58Q219.04 488.63, 264 563.67Q317.4 497.07, 384 550.46Q437.47 483.93, 504 537.41Q555.71 517.12, 576 568.82Q603.41 524.24, 648 551.65Q674.79 506.44, 720 533.24Q772.34 513.58, 792 565.91Q841.35 495.26, 912 544.61Q966.26 478.87, 1032 533.13Q1083.38 512.5, 1104 563.88Q1133.64 521.52, 1176 551.17Q1229.79 484.96, 1296 538.75Q1345.45 516.2, 1368 565.66Q1398.44 524.1, 1440 554.54Q1465.44 507.98, 1512 533.43z" fill="rgba(99, 156, 219, 1)"></path></g><defs><mask id="SvgjsMask5176"><rect width="1440" height="560" fill="#ffffff"></rect></mask><linearGradient x1="50%" y1="0%" x2="50%" y2="100%" gradientUnits="userSpaceOnUse" id="SvgjsLinearGradient5177"><stop stop-color="rgba(0, 5, 72, 1)" offset="0.5"></stop><stop stop-color="rgba(0, 69, 158, 1)" offset="1"></stop></linearGradient></defs></svg>